<svg width="39" height="25" viewBox="0 0 39 25" fill="none" xmlns="http://www.w3.org/2000/svg">
<path d="M17.8243 19.2496H12.1243C10.1533 19.2496 8.4733 18.5547 7.0843 17.1649C5.6949 15.776 5 14.096 5 12.1248C5 10.1536 5.6949 8.4731 7.0843 7.08329C8.4733 5.69443 10.1533 5 12.1243 5H17.8243V7.84992H12.1243C10.9373 7.84992 9.9283 8.26554 9.0963 9.09676C8.2653 9.92803 7.8503 10.9373 7.8503 12.1248C7.8503 13.3122 8.2653 14.3216 9.0963 15.1528C9.9283 15.9841 10.9373 16.3997 12.1243 16.3997H17.8243V19.2496ZM13.5493 13.5497V10.6998H24.9493V13.5497H13.5493ZM20.6743 19.2496V16.3997H26.3743C27.5623 16.3997 28.5713 15.9841 29.4023 15.1528C30.2333 14.3216 30.6493 13.3122 30.6493 12.1248C30.6493 10.9373 30.2333 9.92803 29.4023 9.09676C28.5713 8.26554 27.5623 7.84992 26.3743 7.84992H20.6743V5H26.3743C28.3453 5 30.0263 5.69443 31.4163 7.08329C32.8043 8.4731 33.4993 10.1536 33.4993 12.1248C33.4993 14.096 32.8043 15.776 31.4163 17.1649C30.0263 18.5547 28.3453 19.2496 26.3743 19.2496H20.6743Z" fill="#8257E5"/>
</svg>
