<svg xmlns="http://www.w3.org/2000/svg" width="127" height="20" viewBox="0 0 127 20" fill="none">
  <path d="M5.07386 19.7431H1.70841L1.7341 16.4419H5.07386C5.85314 16.4419 6.46971 16.292 6.92357 15.9923C7.386 15.6926 7.71569 15.2045 7.91265 14.5279C8.11818 13.8514 8.22094 12.9523 8.22094 11.8304V8.94027C8.22094 8.10105 8.16527 7.39028 8.05395 6.80796C7.94262 6.21708 7.76279 5.74609 7.51445 5.39499C7.27467 5.03532 6.95354 4.77414 6.55106 4.61143C6.14858 4.44016 5.65189 4.35453 5.06101 4.35453H1.64419V1.04046H5.06101C6.14858 1.04046 7.13766 1.2203 8.02826 1.57996C8.91886 1.93106 9.68529 2.44915 10.3276 3.13423C10.9698 3.81075 11.4622 4.63712 11.8048 5.61336C12.1473 6.5896 12.3186 7.70713 12.3186 8.96596V11.8304C12.3186 13.0807 12.1473 14.1982 11.8048 15.183C11.4622 16.1593 10.9698 16.9857 10.3276 17.6622C9.68529 18.3387 8.91886 18.8568 8.02826 19.2164C7.14622 19.5675 6.16142 19.7431 5.07386 19.7431ZM4.08478 1.04046V19.7431H0V1.04046H4.08478Z" fill="white"/>
  <path d="M20.4239 20C19.4562 20 18.5956 19.8587 17.842 19.5761C17.0884 19.2935 16.4547 18.8825 15.9409 18.343C15.4271 17.7949 15.0375 17.1312 14.772 16.352C14.5065 15.5641 14.3738 14.6692 14.3738 13.6673V12.3571C14.3738 11.2353 14.4937 10.2548 14.7335 9.41554C14.9818 8.56776 15.3415 7.86127 15.8125 7.29608C16.2835 6.73089 16.8743 6.307 17.5851 6.02441C18.2959 5.73325 19.1137 5.58767 20.0385 5.58767C20.9034 5.58767 21.6699 5.72468 22.3378 5.99872C23.0058 6.27275 23.5667 6.68808 24.0206 7.2447C24.4744 7.79276 24.817 8.48641 25.0482 9.32563C25.2879 10.1563 25.4078 11.1282 25.4078 12.2415V14.0784H15.9281V11.4451H21.58V11.0597C21.58 10.4945 21.5243 10.045 21.413 9.71098C21.3016 9.37701 21.1304 9.13723 20.8992 8.99165C20.668 8.83751 20.3725 8.76044 20.0128 8.76044C19.6532 8.76044 19.3577 8.82894 19.1265 8.96596C18.9039 9.09441 18.7326 9.29994 18.6127 9.58253C18.4928 9.86512 18.4072 10.2376 18.3558 10.7001C18.313 11.1625 18.2916 11.7148 18.2916 12.3571V13.6673C18.2916 14.2924 18.343 14.8105 18.4457 15.2216C18.5485 15.6241 18.7026 15.9452 18.9082 16.185C19.1137 16.4162 19.362 16.5832 19.6532 16.6859C19.9529 16.7801 20.2997 16.8272 20.6936 16.8272C21.2674 16.8272 21.8026 16.7288 22.2993 16.5318C22.8045 16.3263 23.2327 16.0265 23.5838 15.6326L25.1638 18.0347C24.9154 18.343 24.5686 18.6513 24.1233 18.9595C23.6866 19.2678 23.1556 19.5204 22.5305 19.7174C21.9139 19.9058 21.2117 20 20.4239 20Z" fill="white"/>
  <path d="M31.3937 16.8658L33.4618 5.84457H37.5594L33.8214 19.7431H31.3809L31.3937 16.8658ZM30.3019 5.84457L32.3828 16.8786V19.7431H29.9422L26.1914 5.84457H30.3019Z" fill="white"/>
  <path d="M49.8137 16.4419V19.7431H41.991V16.4419H49.8137ZM43.3398 1.04046V19.7431H39.255V1.04046H43.3398Z" fill="white"/>
  <path d="M55.7868 5.84457V19.7431H51.869V5.84457H55.7868ZM51.6891 2.26076C51.6891 1.66988 51.8818 1.18604 52.2672 0.809249C52.6611 0.423892 53.1792 0.231214 53.8214 0.231214C54.4637 0.231214 54.9775 0.423892 55.3629 0.809249C55.7482 1.18604 55.9409 1.6656 55.9409 2.24791C55.9409 2.83879 55.7482 3.32263 55.3629 3.69942C54.9775 4.07621 54.4637 4.26461 53.8214 4.26461C53.1792 4.26461 52.6611 4.07621 52.2672 3.69942C51.8818 3.32263 51.6891 2.84307 51.6891 2.26076Z" fill="white"/>
  <path d="M62.2736 8.81182V19.7431H58.3558V5.84457H62.0295L62.2736 8.81182ZM61.7598 12.3186L60.8092 12.3443C60.7921 11.2909 60.8863 10.349 61.0918 9.5183C61.3059 8.68765 61.6142 7.98116 62.0167 7.39884C62.4277 6.80796 62.9116 6.35838 63.4682 6.0501C64.0334 5.74181 64.6628 5.58767 65.3565 5.58767C65.8874 5.58767 66.3755 5.68187 66.8208 5.87026C67.2747 6.05866 67.6643 6.36266 67.9897 6.78227C68.3151 7.19332 68.5678 7.74138 68.7476 8.42646C68.9274 9.11154 69.0173 9.95504 69.0173 10.957V19.7431H65.0995V10.9313C65.0995 10.3575 65.0439 9.91651 64.9326 9.60822C64.8212 9.29137 64.6543 9.073 64.4316 8.95311C64.2175 8.82466 63.9392 8.76044 63.5967 8.76044C63.2798 8.76044 63.0015 8.85464 62.7617 9.04303C62.5305 9.22286 62.3378 9.4712 62.1837 9.78805C62.0295 10.1049 61.9182 10.4817 61.8497 10.9184C61.7898 11.3466 61.7598 11.8133 61.7598 12.3186Z" fill="white"/>
  <path d="M75.3757 0V19.7431H71.4579V0H75.3757ZM82.7489 5.84457L77.842 12.8452L74.9518 16.0694L73.3976 13.3205L75.684 9.95504L78.0861 5.84457H82.7489ZM78.5999 19.7431L75.7482 13.3847L78.5613 11.1111L83.0572 19.7431H78.5999Z" fill="white"/>
  <path d="M90.2376 15.9794C90.2376 15.7311 90.1477 15.5256 89.9679 15.3629C89.7966 15.1916 89.544 15.0203 89.21 14.8491C88.876 14.6692 88.4479 14.4509 87.9255 14.194C87.3346 13.9456 86.7951 13.6844 86.307 13.4104C85.8189 13.1364 85.3993 12.8324 85.0482 12.4984C84.6971 12.1559 84.4273 11.7662 84.2389 11.3295C84.0591 10.8927 83.9692 10.3875 83.9692 9.81374C83.9692 9.22286 84.0762 8.6748 84.2903 8.16956C84.5044 7.66431 84.8212 7.21901 85.2408 6.83365C85.669 6.4483 86.1828 6.14429 86.7823 5.92164C87.3903 5.69899 88.0796 5.58767 88.8503 5.58767C89.9122 5.58767 90.8285 5.7675 91.5992 6.12717C92.3699 6.48683 92.9608 6.99636 93.3719 7.65575C93.7915 8.31514 94.0013 9.08157 94.0013 9.95504H90.0963C90.0963 9.62963 90.0578 9.35132 89.9807 9.1201C89.9037 8.88033 89.7709 8.70049 89.5825 8.5806C89.4027 8.45215 89.1544 8.38793 88.8375 8.38793C88.632 8.38793 88.4393 8.43931 88.2595 8.54207C88.0882 8.63627 87.9469 8.77328 87.8356 8.95311C87.7328 9.13295 87.6814 9.35132 87.6814 9.60822C87.6814 9.79662 87.72 9.95932 87.797 10.0963C87.8741 10.2334 87.9897 10.3661 88.1439 10.4945C88.3066 10.623 88.5078 10.7557 88.7476 10.8927C88.9959 11.0212 89.2999 11.1711 89.6596 11.3423C90.4903 11.6506 91.231 11.9889 91.8818 12.3571C92.5412 12.7253 93.0593 13.1835 93.4361 13.7315C93.8214 14.271 94.0141 14.9775 94.0141 15.851C94.0141 16.4676 93.8942 17.0285 93.6545 17.5337C93.4147 18.039 93.0679 18.48 92.614 18.8568C92.1601 19.225 91.6164 19.5076 90.9827 19.7046C90.349 19.9015 89.6339 20 88.8375 20C87.7071 20 86.748 19.7773 85.9602 19.332C85.1809 18.8782 84.5943 18.3044 84.2004 17.6108C83.8065 16.9086 83.6095 16.1807 83.6095 15.4271H87.2704C87.2875 15.8724 87.3646 16.2235 87.5016 16.4804C87.6386 16.7288 87.827 16.9086 88.0668 17.0199C88.3151 17.1227 88.602 17.1741 88.9274 17.1741C89.2271 17.1741 89.4712 17.1312 89.6596 17.0456C89.848 16.9514 89.9893 16.8144 90.0835 16.6346C90.1863 16.4462 90.2376 16.2278 90.2376 15.9794Z" fill="white"/>
  <path d="M110.838 20H105.138C103.167 20 101.487 19.3051 100.098 17.9153C98.7086 16.5264 98.0137 14.8464 98.0137 12.8752C98.0137 10.904 98.7086 9.22347 100.098 7.83366C101.487 6.4448 103.167 5.75037 105.138 5.75037H110.838V8.60029H105.138C103.951 8.60029 102.942 9.01591 102.11 9.84713C101.279 10.6784 100.864 11.6877 100.864 12.8752C100.864 14.0626 101.279 15.072 102.11 15.9032C102.942 16.7345 103.951 17.1501 105.138 17.1501H110.838V20ZM106.563 14.3001V11.4502H117.963V14.3001H106.563ZM113.688 20V17.1501H119.388C120.576 17.1501 121.585 16.7345 122.416 15.9032C123.247 15.072 123.663 14.0626 123.663 12.8752C123.663 11.6877 123.247 10.6784 122.416 9.84713C121.585 9.01591 120.576 8.60029 119.388 8.60029H113.688V5.75037H119.388C121.359 5.75037 123.04 6.4448 124.43 7.83366C125.818 9.22347 126.513 10.904 126.513 12.8752C126.513 14.8464 125.818 16.5264 124.43 17.9153C123.04 19.3051 121.359 20 119.388 20H113.688Z" fill="#8257E5"/>
  </svg>